<svg width="24" height="24" viewBox="0 0 24 24" fill="none" xmlns="http://www.w3.org/2000/svg">
<path d="M19 3H5C3.89543 3 3 3.89543 3 5V19C3 20.1046 3.89543 21 5 21H19C20.1046 21 21 20.1046 21 19V5C21 3.89543 20.1046 3 19 3Z" fill="#1e0bff"/>
<path d="M12 8C10.3431 8 9 9.34315 9 11V11.5C9 12.3284 9.67157 13 10.5 13H13.5C14.3284 13 15 12.3284 15 11.5V11C15 9.34315 13.6569 8 12 8Z" fill="white"/>
<circle cx="12" cy="6" r="2" fill="white"/>
<path d="M7 17H17" stroke="white" stroke-width="1.5" stroke-linecap="round"/>
<path d="M7 19H14" stroke="white" stroke-width="1.5" stroke-linecap="round"/>
</svg>
