<svg width="24" height="24" viewBox="0 0 24 24" fill="none" xmlns="http://www.w3.org/2000/svg">
<path d="M22 10V6C22 4.89543 21.1046 4 20 4H4C2.89543 4 2 4.89543 2 6V10C3.10457 10 4 10.8954 4 12C4 13.1046 3.10457 14 2 14V18C2 19.1046 2.89543 20 4 20H20C21.1046 20 22 19.1046 22 18V14C20.8954 14 20 13.1046 20 12C20 10.8954 20.8954 10 22 10Z" fill="#1e0bff"/>
<path d="M10 4V20" stroke="white" stroke-width="1.5" stroke-dasharray="3 2"/>
<rect x="13" y="9" width="5" height="2" rx="1" fill="white"/>
<rect x="13" y="13" width="5" height="2" rx="1" fill="white"/>
</svg>
