<svg width="24" height="24" viewBox="0 0 24 24" fill="none" xmlns="http://www.w3.org/2000/svg">
<g clip-path="url(#clip0_39_32)">
<path d="M23.7071 0.293146C23.5196 0.105675 23.2653 0.000359476 23.0001 0.000359476C22.735 0.000359476 22.4807 0.105675 22.2931 0.293146L12.0001 10.5861L1.70715 0.293146C1.51962 0.105675 1.26531 0.000359476 1.00015 0.000359476C0.734981 0.000359476 0.480673 0.105675 0.293145 0.293146V0.293146C0.105674 0.480674 0.000358582 0.734982 0.000358582 1.00015C0.000358582 1.26531 0.105674 1.51962 0.293145 1.70715L10.5861 12.0001L0.293145 22.2931C0.105674 22.4807 0.000358582 22.735 0.000358582 23.0001C0.000358582 23.2653 0.105674 23.5196 0.293145 23.7071V23.7071C0.480673 23.8946 0.734981 23.9999 1.00015 23.9999C1.26531 23.9999 1.51962 23.8946 1.70715 23.7071L12.0001 13.4141L22.2931 23.7071C22.4807 23.8946 22.735 23.9999 23.0001 23.9999C23.2653 23.9999 23.5196 23.8946 23.7071 23.7071C23.8946 23.5196 23.9999 23.2653 23.9999 23.0001C23.9999 22.735 23.8946 22.4807 23.7071 22.2931L13.4141 12.0001L23.7071 1.70715C23.8946 1.51962 23.9999 1.26531 23.9999 1.00015C23.9999 0.734982 23.8946 0.480674 23.7071 0.293146V0.293146Z" fill="#94A3B8"/>
</g>
<defs>
<clipPath id="clip0_39_32">
<rect width="24" height="24" fill="white"/>
</clipPath>
</defs>
</svg>
